<?xml version="1.0" standalone="no"?>
<!DOCTYPE svg PUBLIC "-//W3C//DTD SVG 20010904//EN"
 "http://www.w3.org/TR/2001/REC-SVG-20010904/DTD/svg10.dtd">
<svg version="1.0" xmlns="http://www.w3.org/2000/svg"
 width="1017.000000pt" height="281.000000pt" viewBox="0 0 1017.000000 281.000000"
 preserveAspectRatio="xMidYMid meet">

<g transform="translate(0.000000,281.000000) scale(0.100000,-0.100000)"
fill="#000000" stroke="none">
<path d="M10 1395 l0 -1395 5080 0 5080 0 0 1395 0 1395 -5080 0 -5080 0 0
-1395z m10090 -5 l0 -1320 -5005 0 -5005 0 0 1320 0 1320 5005 0 5005 0 0
-1320z"/>
<path d="M280 1390 l0 -1140 2405 0 2405 0 0 1140 0 1140 -2405 0 -2405 0 0
-1140z m1641 104 l204 -287 3 287 2 286 50 0 50 0 0 -380 0 -380 -48 0 -48 0
-205 288 -204 288 -3 -288 -2 -288 -50 0 -50 0 0 380 0 380 49 0 49 0 203
-286z m1079 241 l0 -45 -180 0 -180 0 0 -120 0 -120 170 0 170 0 0 -45 0 -45
-170 0 -170 0 0 -125 0 -125 190 0 190 0 0 -45 0 -45 -245 0 -245 0 0 380 0
380 235 0 235 0 0 -45z m663 25 c60 -23 119 -77 142 -132 24 -60 20 -164 -10
-225 -49 -97 -127 -132 -297 -133 l-118 0 0 -125 0 -125 -55 0 -55 0 0 380 0
380 170 0 c145 0 177 -3 223 -20z"/>
<path d="M3380 1526 l0 -166 93 0 c110 0 162 13 200 48 52 49 59 153 14 216
-29 42 -77 57 -199 63 l-108 6 0 -167z"/>
<path d="M5531 1784 c-119 -32 -209 -106 -259 -212 -24 -51 -27 -68 -27 -172
0 -104 3 -121 27 -172 50 -108 140 -181 263 -213 204 -53 411 37 493 213 24
51 27 68 27 172 0 104 -3 121 -27 172 -83 177 -293 267 -497 212z m226 -220
c114 -66 112 -263 -4 -331 -103 -60 -242 -15 -282 90 -15 39 -14 121 3 160 16
40 77 95 114 103 15 3 32 7 37 9 22 8 93 -8 132 -31z"/>
<path d="M7605 1786 c-72 -17 -151 -64 -195 -113 -131 -149 -131 -397 0 -546
76 -86 212 -135 347 -123 110 9 178 39 249 110 75 76 105 144 112 264 l5 82
-222 0 -221 0 0 -75 0 -75 99 0 c55 0 102 -4 105 -9 9 -14 -44 -72 -81 -87
-42 -18 -125 -18 -166 0 -39 16 -82 61 -96 99 -18 47 -13 143 9 186 39 78 101
108 201 99 36 -4 60 -14 89 -37 38 -31 40 -31 149 -31 70 0 111 4 111 10 0 28
-34 86 -79 133 -101 107 -262 151 -416 113z"/>
<path d="M9617 1786 c-111 -30 -177 -112 -177 -218 0 -133 74 -204 253 -245
87 -20 131 -49 135 -89 4 -38 -14 -54 -66 -61 -50 -7 -100 18 -114 58 l-10 29
-104 0 c-117 0 -113 4 -88 -79 20 -70 82 -132 155 -157 81 -29 237 -26 304 4
93 43 144 114 145 202 0 136 -75 208 -266 254 -97 24 -134 47 -134 85 0 81
160 81 177 1 l6 -30 103 0 104 0 -6 33 c-12 69 -28 102 -69 143 -74 73 -223
103 -348 70z"/>
<path d="M6190 1401 l0 -381 105 0 104 0 3 108 3 107 42 3 42 3 56 -110 55
-111 124 0 125 0 -70 126 -70 126 39 34 c60 51 85 120 80 219 -5 88 -20 125
-70 175 -66 66 -98 74 -345 78 l-223 4 0 -381z m379 184 c33 -16 41 -33 41
-80 0 -18 -3 -41 -6 -50 -11 -28 -60 -45 -134 -45 l-70 0 0 95 0 95 70 0 c43
0 82 -6 99 -15z"/>
<path d="M6970 1400 l0 -380 110 0 110 0 0 380 0 380 -110 0 -110 0 0 -380z"/>
<path d="M8240 1400 l0 -380 110 0 110 0 0 380 0 380 -110 0 -110 0 0 -380z"/>
<path d="M8620 1400 l0 -380 110 0 110 0 2 190 3 190 143 -190 142 -190 90 0
90 0 0 380 0 380 -110 0 -110 0 -2 -189 -3 -189 -143 189 -143 189 -89 0 -90
0 0 -380z"/>
</g>
</svg>
